<svg xmlns="http://www.w3.org/2000/svg" xmlns:xlink="http://www.w3.org/1999/xlink" width="20" height="20" version="1.1" viewBox="0 0 20 20"><title>Group</title><desc>Created with Sketch.</desc><g id="Page-1" fill="none" fill-rule="evenodd" stroke="none" stroke-width="1"><g id="Artboard" transform="translate(-33.000000, -4.000000)"><g id="Group" transform="translate(33.000000, 4.000000)"><polygon id="Rectangle-5-Copy-4" fill="#FD3535" points="7.368 0 9.474 4.211 9.474 9.474 4.211 9.474 0 7.368 0 0"/><polygon id="Rectangle-5-Copy-5" fill="#6AC300" points="17.895 0 20 4.211 20 9.474 14.737 9.474 10.526 7.368 10.526 0" transform="translate(15.263158, 4.736842) scale(-1, 1) translate(-15.263158, -4.736842)"/><polygon id="Rectangle-5-Copy-7" fill="#EBBF20" points="7.368 10.526 9.474 14.737 9.474 20 4.211 20 0 17.895 0 10.526" transform="translate(4.736842, 15.263158) scale(1, -1) translate(-4.736842, -15.263158)"/><polygon id="Rectangle-5-Copy-6" fill="#1F6CE9" points="17.895 10.526 20 14.737 20 20 14.737 20 10.526 17.895 10.526 10.526" transform="translate(15.263158, 15.263158) scale(-1, -1) translate(-15.263158, -15.263158)"/></g></g></g></svg>