<svg xmlns="http://www.w3.org/2000/svg" xmlns:xlink="http://www.w3.org/1999/xlink" width="20" height="20" version="1.1" viewBox="0 0 20 20"><title>Visual Studio</title><desc>Created with Sketch.</desc><g id="Page-1" fill="none" fill-rule="evenodd" stroke="none" stroke-width="1"><g id="Artboard" transform="translate(-77.000000, -43.000000)"><g id="Visual-Studio" transform="translate(76.000000, 41.000000)"><polygon id="Rectangle" fill="#68217A" points="1 7 3 6 3 18 1 17"/><polygon id="Rectangle-2" fill="#541D66" points="1.349 7.839 7.865 8.696 9.865 12.161 2.849 10.438" transform="translate(5.607051, 10.000000) rotate(-330.000000) translate(-5.607051, -10.000000)"/><polygon id="Rectangle-3" fill="#541D66" points="3 15 8 10 8 14 3 18"/><polygon id="Rectangle-2-Copy" fill="#68217A" points="5.536 12.804 15.464 14 18.464 19.196 7.536 16.268" transform="translate(12.000000, 16.000000) rotate(-330.000000) translate(-12.000000, -16.000000)"/><polygon id="Rectangle-2-Copy-2" fill="#68217A" points="9.469 11.982 12.397 1.054 15.397 6.25 11.469 15.446" transform="translate(12.433013, 8.250000) rotate(-330.000000) translate(-12.433013, -8.250000)"/><polygon id="Rectangle-4" fill="#541D66" points="16 2 21 4 21 20 16 22"/></g></g></g></svg>