<svg xmlns="http://www.w3.org/2000/svg" xmlns:svg="http://www.w3.org/2000/svg" id="Layer_1" x="0" y="0" enable-background="new 0 0 136.9 114.8" version="1.1" viewBox="0 0 136.9 114.8" xml:space="preserve"><metadata id="metadata60"/><path id="path3" fill="none" stroke="#a45c94" stroke-miterlimit="10" stroke-width="1.347" d="M130,114.8H6.9c-3.8,0-6.9-3.1-6.9-6.9V6.9 C0,3,3.1,0,6.9,0H130c3.8,0,6.9,3.1,6.9,6.9v101.1C136.9,111.7,133.9,114.8,130,114.8z" style="stroke:#a45c94;stroke-opacity:1"/><g id="Layer_1_21_" style="stroke:#a45c94;stroke-opacity:1"><rect id="rect6" width="102.9" height="67.5" x="16.3" y="10.9" fill="none" stroke="#a45c94" stroke-miterlimit="10" stroke-width="1.347" style="stroke:#a45c94;stroke-opacity:1"/></g><g id="g8" style="stroke:#a45c94;stroke-opacity:1"><line id="line10" x1="43.1" x2="43.1" y1="22.1" y2="64.9" fill="none" stroke="#a45c94" stroke-miterlimit="10" stroke-width=".494" style="stroke:#a45c94;stroke-opacity:1"/><line id="line12" x1="45" x2="45" y1="22.1" y2="64.9" fill="none" stroke="#a45c94" stroke-miterlimit="10" stroke-width=".494" style="stroke:#a45c94;stroke-opacity:1"/><line id="line14" x1="46.8" x2="46.8" y1="22.1" y2="64.9" fill="none" stroke="#a45c94" stroke-miterlimit="10" stroke-width=".494" style="stroke:#a45c94;stroke-opacity:1"/><line id="line16" x1="48.7" x2="48.7" y1="22.1" y2="64.9" fill="none" stroke="#a45c94" stroke-miterlimit="10" stroke-width=".494" style="stroke:#a45c94;stroke-opacity:1"/><line id="line18" x1="50.6" x2="50.6" y1="22.1" y2="64.9" fill="none" stroke="#a45c94" stroke-miterlimit="10" stroke-width=".494" style="stroke:#a45c94;stroke-opacity:1"/><line id="line20" x1="52.5" x2="52.5" y1="22.1" y2="64.9" fill="none" stroke="#a45c94" stroke-miterlimit="10" stroke-width=".494" style="stroke:#a45c94;stroke-opacity:1"/></g><path id="path22" fill="none" stroke="#a45c94" stroke-miterlimit="10" stroke-width="1.245" d="M54.9,20.8v44.3c0,1-0.8,1.8-1.8,1.8H42.4 c-1,0-1.8-0.8-1.8-1.8V20.8" style="stroke:#a45c94;stroke-opacity:1"/><g id="g24" style="stroke:#a45c94;stroke-opacity:1"><line id="line26" x1="64.5" x2="64.5" y1="22.1" y2="64.9" fill="none" stroke="#a45c94" stroke-miterlimit="10" stroke-width=".494" style="stroke:#a45c94;stroke-opacity:1"/><line id="line28" x1="66.4" x2="66.4" y1="22.1" y2="64.9" fill="none" stroke="#a45c94" stroke-miterlimit="10" stroke-width=".494" style="stroke:#a45c94;stroke-opacity:1"/><line id="line30" x1="68.3" x2="68.3" y1="22.1" y2="64.9" fill="none" stroke="#a45c94" stroke-miterlimit="10" stroke-width=".494" style="stroke:#a45c94;stroke-opacity:1"/><line id="line32" x1="70.1" x2="70.1" y1="22.1" y2="64.9" fill="none" stroke="#a45c94" stroke-miterlimit="10" stroke-width=".494" style="stroke:#a45c94;stroke-opacity:1"/><line id="line34" x1="72" x2="72" y1="22.1" y2="64.9" fill="none" stroke="#a45c94" stroke-miterlimit="10" stroke-width=".494" style="stroke:#a45c94;stroke-opacity:1"/><line id="line36" x1="73.9" x2="73.9" y1="22.1" y2="64.9" fill="none" stroke="#a45c94" stroke-miterlimit="10" stroke-width=".494" style="stroke:#a45c94;stroke-opacity:1"/></g><path id="path38" fill="none" stroke="#a45c94" stroke-miterlimit="10" stroke-width="1.245" d="M76.4,20.8v44.3c0,1-0.8,1.8-1.8,1.8H63.8 c-1,0-1.8-0.8-1.8-1.8V20.8" style="stroke:#a45c94;stroke-opacity:1"/><g id="g40" style="stroke:#a45c94;stroke-opacity:1"><line id="line42" x1="85.9" x2="85.9" y1="22.1" y2="64.9" fill="none" stroke="#a45c94" stroke-miterlimit="10" stroke-width=".494" style="stroke:#a45c94;stroke-opacity:1"/><line id="line44" x1="87.8" x2="87.8" y1="22.1" y2="64.9" fill="none" stroke="#a45c94" stroke-miterlimit="10" stroke-width=".494" style="stroke:#a45c94;stroke-opacity:1"/><line id="line46" x1="89.7" x2="89.7" y1="22.1" y2="64.9" fill="none" stroke="#a45c94" stroke-miterlimit="10" stroke-width=".494" style="stroke:#a45c94;stroke-opacity:1"/><line id="line48" x1="91.6" x2="91.6" y1="22.1" y2="64.9" fill="none" stroke="#a45c94" stroke-miterlimit="10" stroke-width=".494" style="stroke:#a45c94;stroke-opacity:1"/><line id="line50" x1="93.4" x2="93.4" y1="22.1" y2="64.9" fill="none" stroke="#a45c94" stroke-miterlimit="10" stroke-width=".494" style="stroke:#a45c94;stroke-opacity:1"/><line id="line52" x1="95.3" x2="95.3" y1="22.1" y2="64.9" fill="none" stroke="#a45c94" stroke-miterlimit="10" stroke-width=".494" style="stroke:#a45c94;stroke-opacity:1"/></g><path id="path54" fill="none" stroke="#a45c94" stroke-miterlimit="10" stroke-width="1.245" d="M97.8,20.8v44.3c0,1-0.8,1.8-1.8,1.8H85.3 c-1,0-1.8-0.8-1.8-1.8V20.8" style="stroke:#a45c94;stroke-opacity:1"/></svg>