<svg xmlns="http://www.w3.org/2000/svg" xmlns:svg="http://www.w3.org/2000/svg" id="Layer_1" x="0" y="0" enable-background="new 0 0 136.9 114.8" version="1.1" viewBox="0 0 136.9 114.8" xml:space="preserve"><metadata id="metadata53"/><rect id="rect3" width="103.6" height="67.5" x="16.3" y="10.9" fill="none" stroke="#a45c94" stroke-miterlimit="10" stroke-width="1.347" style="stroke:#a45c94;stroke-opacity:1"/><path id="path5" fill="none" stroke="#a45c94" stroke-miterlimit="10" stroke-width=".708" d="M55.2,62.5H23.4c-0.4,0-0.7-0.4-0.7-0.9l0,0 c0-0.5,0.3-0.9,0.7-0.9h31.8c0.4,0,0.7,0.4,0.7,0.9l0,0C55.9,62.1,55.5,62.5,55.2,62.5z" style="stroke:#a45c94;stroke-opacity:1"/><path id="path7" fill="#a45c94" d="M38.1,62.5H23.4c-0.4,0-0.7-0.4-0.7-0.9l0,0c0-0.5,0.3-0.9,0.7-0.9h14.7c0.4,0,0.7,0.4,0.7,0.9l0,0 C38.7,62.1,38.4,62.5,38.1,62.5z" style="stroke:#a45c94;stroke-opacity:1;fill:#a45c94;fill-opacity:1"/><path id="path9" fill="none" stroke="#a45c94" stroke-miterlimit="10" stroke-width=".708" d="M55.2,67.8H23.4c-0.4,0-0.7-0.4-0.7-0.9l0,0 c0-0.5,0.3-0.9,0.7-0.9h31.8c0.4,0,0.7,0.4,0.7,0.9l0,0C55.9,67.4,55.5,67.8,55.2,67.8z" style="stroke:#a45c94;stroke-opacity:1"/><path id="path11" fill="#a45c94" d="M44.2,67.8H23.4c-0.4,0-0.7-0.4-0.7-0.9l0,0c0-0.5,0.3-0.9,0.7-0.9h20.8c0.4,0,0.7,0.4,0.7,0.9l0,0 C44.8,67.4,44.6,67.8,44.2,67.8z" style="stroke:#a45c94;stroke-opacity:1;fill:#a45c94;fill-opacity:1"/><path id="path13" fill="none" stroke="#a45c94" stroke-miterlimit="10" stroke-width=".708" d="M55.2,73H23.4c-0.4,0-0.7-0.4-0.7-0.9l0,0 c0-0.5,0.3-0.9,0.7-0.9h31.8c0.4,0,0.7,0.4,0.7,0.9l0,0C55.9,72.6,55.5,73,55.2,73z" style="stroke:#a45c94;stroke-opacity:1"/><path id="path15" fill="#a45c94" d="M49.4,73h-26c-0.4,0-0.7-0.4-0.7-0.9l0,0c0-0.5,0.3-0.9,0.7-0.9h26c0.4,0,0.7,0.4,0.7,0.9l0,0 C50.1,72.6,49.8,73,49.4,73z" style="stroke:#a45c94;stroke-opacity:1;fill:#a45c94;fill-opacity:1"/><rect id="rect17" width="103.6" height="2.4" x="16.3" y="10.9" fill="none" stroke="#a45c94" stroke-miterlimit="10" stroke-width="1.347" style="stroke:#a45c94;stroke-opacity:1"/><circle id="circle19" cx="69.3" cy="39.6" r="13.9" fill="none" stroke="#a45c94" stroke-miterlimit="10" stroke-width="1.347" style="stroke:#a45c94;stroke-opacity:1"/><g id="g21" style="stroke:#a45c94;stroke-opacity:1"><g id="g23" style="stroke:#a45c94;stroke-opacity:1"><path id="path25" fill="none" stroke="#a45c94" stroke-miterlimit="10" stroke-width="1.252" d="M79.8,33.5c1.1,1.9,1.3,5.2,0,5.7 c-1.3,0.5-7.2,0.3-10.2,0.2c1.3-2.7,4.1-7.9,5.2-8.8C75.9,29.7,78.7,31.6,79.8,33.5z" style="stroke:#a45c94;stroke-opacity:1"/></g><g id="g27" style="stroke:#a45c94;stroke-opacity:1"><path id="path29" fill="none" stroke="#a45c94" stroke-miterlimit="10" stroke-width="1.252" d="M79.8,45.6c-1.1,1.9-3.8,3.7-4.9,2.9 c-1.1-0.9-3.9-6.1-5.2-8.8c3-0.2,8.9-0.4,10.2,0.1C81.2,40.4,80.9,43.7,79.8,45.6z" style="stroke:#a45c94;stroke-opacity:1"/></g><g id="g31" style="stroke:#a45c94;stroke-opacity:1"><path id="path33" fill="none" stroke="#a45c94" stroke-miterlimit="10" stroke-width="1.252" d="M69.3,51.7c-2.2,0-5.2-1.5-5-2.8 s3.3-6.4,5-8.9c1.7,2.5,4.8,7.5,5,8.9S71.5,51.7,69.3,51.7z" style="stroke:#a45c94;stroke-opacity:1"/></g><g id="g35" style="stroke:#a45c94;stroke-opacity:1"><path id="path37" fill="none" stroke="#a45c94" stroke-miterlimit="10" stroke-width="1.252" d="M58.9,45.6c-1.1-1.9-1.3-5.2,0-5.7 c1.3-0.5,7.2-0.3,10.2-0.2c-1.3,2.7-4.1,7.9-5.2,8.8C62.8,49.4,60,47.6,58.9,45.6z" style="stroke:#a45c94;stroke-opacity:1"/></g><g id="g39" style="stroke:#a45c94;stroke-opacity:1"><path id="path41" fill="none" stroke="#a45c94" stroke-miterlimit="10" stroke-width="1.252" d="M58.9,33.5c1.1-1.9,3.8-3.7,4.9-2.9 c1.1,0.9,3.9,6.1,5.2,8.8c-3,0.2-8.9,0.4-10.2-0.1C57.5,38.8,57.8,35.5,58.9,33.5z" style="stroke:#a45c94;stroke-opacity:1"/></g><g id="g43" style="stroke:#a45c94;stroke-opacity:1"><path id="path45" fill="none" stroke="#a45c94" stroke-miterlimit="10" stroke-width="1.252" d="M69.3,27.5c2.2,0,5.2,1.5,5,2.8 s-3.3,6.4-5,8.9c-1.7-2.5-4.8-7.5-5-8.9S67.1,27.5,69.3,27.5z" style="stroke:#a45c94;stroke-opacity:1"/></g></g><path id="path47" fill="none" stroke="#a45c94" stroke-miterlimit="10" stroke-width="1.347" d="M130,114.8H6.9c-3.8,0-6.9-3.1-6.9-6.9V6.9 C0,3.1,3.1,0,6.9,0H130c3.8,0,6.9,3.1,6.9,6.9v101.1C136.9,111.7,133.9,114.8,130,114.8z" style="stroke:#a45c94;stroke-opacity:1"/></svg>