<svg xmlns="http://www.w3.org/2000/svg" xmlns:svg="http://www.w3.org/2000/svg" id="Layer_1" x="0" y="0" enable-background="new 0 0 136.9 114.8" version="1.1" viewBox="0 0 136.9 114.8" xml:space="preserve"><metadata id="metadata60"/><path id="path3" fill="none" stroke="#a45c94" stroke-miterlimit="10" stroke-width="1.347" d="M130,114.9H6.9c-3.8,0-6.9-3.1-6.9-6.9V7 c0-3.8,3.1-6.9,6.9-6.9H130c3.8,0,6.9,3.1,6.9,6.9V108C136.9,111.8,133.9,114.9,130,114.9z" style="stroke:#a45c94;stroke-opacity:1"/><g id="Layer_1_19_" style="stroke:#a45c94;stroke-opacity:1"><rect id="rect6" width="102.9" height="67.5" x="16.3" y="11" fill="none" stroke="#a45c94" stroke-miterlimit="10" stroke-width="1.347" style="stroke:#a45c94;stroke-opacity:1"/></g><g id="g8" style="stroke:#a45c94;stroke-opacity:1"><line id="line10" x1="39.6" x2="39.6" y1="25" y2="62.3" fill="none" stroke="#a45c94" stroke-miterlimit="10" stroke-width=".431" style="stroke:#a45c94;stroke-opacity:1"/><line id="line12" x1="41.2" x2="41.2" y1="25" y2="62.3" fill="none" stroke="#a45c94" stroke-miterlimit="10" stroke-width=".431" style="stroke:#a45c94;stroke-opacity:1"/><line id="line14" x1="42.8" x2="42.8" y1="25" y2="62.3" fill="none" stroke="#a45c94" stroke-miterlimit="10" stroke-width=".431" style="stroke:#a45c94;stroke-opacity:1"/><line id="line16" x1="44.5" x2="44.5" y1="25" y2="62.3" fill="none" stroke="#a45c94" stroke-miterlimit="10" stroke-width=".431" style="stroke:#a45c94;stroke-opacity:1"/><line id="line18" x1="46.1" x2="46.1" y1="25" y2="62.3" fill="none" stroke="#a45c94" stroke-miterlimit="10" stroke-width=".431" style="stroke:#a45c94;stroke-opacity:1"/><line id="line20" x1="47.7" x2="47.7" y1="25" y2="62.3" fill="none" stroke="#a45c94" stroke-miterlimit="10" stroke-width=".431" style="stroke:#a45c94;stroke-opacity:1"/></g><path id="path22" fill="none" stroke="#a45c94" stroke-miterlimit="10" stroke-width="1.085" d="M49.9,23.9v38.6c0,0.9-0.7,1.6-1.6,1.6H39 c-0.9,0-1.6-0.7-1.6-1.6V23.9" style="stroke:#a45c94;stroke-opacity:1"/><g id="g24" style="stroke:#a45c94;stroke-opacity:1"><line id="line26" x1="54.8" x2="67.4" y1="27.5" y2="62.6" fill="none" stroke="#a45c94" stroke-miterlimit="10" stroke-width=".431" style="stroke:#a45c94;stroke-opacity:1"/><line id="line28" x1="56.3" x2="69" y1="27" y2="62" fill="none" stroke="#a45c94" stroke-miterlimit="10" stroke-width=".431" style="stroke:#a45c94;stroke-opacity:1"/><line id="line30" x1="57.8" x2="70.5" y1="26.4" y2="61.5" fill="none" stroke="#a45c94" stroke-miterlimit="10" stroke-width=".431" style="stroke:#a45c94;stroke-opacity:1"/><line id="line32" x1="59.4" x2="72.1" y1="25.9" y2="60.9" fill="none" stroke="#a45c94" stroke-miterlimit="10" stroke-width=".431" style="stroke:#a45c94;stroke-opacity:1"/><line id="line34" x1="60.9" x2="73.6" y1="25.3" y2="60.4" fill="none" stroke="#a45c94" stroke-miterlimit="10" stroke-width=".431" style="stroke:#a45c94;stroke-opacity:1"/><line id="line36" x1="62.4" x2="75.1" y1="24.8" y2="59.8" fill="none" stroke="#a45c94" stroke-miterlimit="10" stroke-width=".431" style="stroke:#a45c94;stroke-opacity:1"/></g><path id="path38" fill="none" stroke="#a45c94" stroke-miterlimit="10" stroke-width="1.085" d="M64.1,23l13.1,36.3c0.3,0.8-0.1,1.7-0.9,2 l-8.8,3.2c-0.8,0.3-1.7-0.1-2-0.9L52.4,27.2" style="stroke:#a45c94;stroke-opacity:1"/><g id="g40" style="stroke:#a45c94;stroke-opacity:1"><line id="line42" x1="72.5" x2="93.5" y1="30.6" y2="61.4" fill="none" stroke="#a45c94" stroke-miterlimit="10" stroke-width=".431" style="stroke:#a45c94;stroke-opacity:1"/><line id="line44" x1="73.8" x2="94.9" y1="29.7" y2="60.5" fill="none" stroke="#a45c94" stroke-miterlimit="10" stroke-width=".431" style="stroke:#a45c94;stroke-opacity:1"/><line id="line46" x1="75.2" x2="96.2" y1="28.8" y2="59.6" fill="none" stroke="#a45c94" stroke-miterlimit="10" stroke-width=".431" style="stroke:#a45c94;stroke-opacity:1"/><line id="line48" x1="76.5" x2="97.6" y1="27.9" y2="58.6" fill="none" stroke="#a45c94" stroke-miterlimit="10" stroke-width=".431" style="stroke:#a45c94;stroke-opacity:1"/><line id="line50" x1="77.9" x2="98.9" y1="27" y2="57.7" fill="none" stroke="#a45c94" stroke-miterlimit="10" stroke-width=".431" style="stroke:#a45c94;stroke-opacity:1"/><line id="line52" x1="79.2" x2="100.3" y1="26" y2="56.8" fill="none" stroke="#a45c94" stroke-miterlimit="10" stroke-width=".431" style="stroke:#a45c94;stroke-opacity:1"/></g><path id="path54" fill="none" stroke="#a45c94" stroke-miterlimit="10" stroke-width="1.085" d="M80.4,23.9l21.8,31.9c0.5,0.7,0.3,1.7-0.4,2.2 l-7.7,5.3c-0.7,0.5-1.7,0.3-2.2-0.4L70.1,31" style="stroke:#a45c94;stroke-opacity:1"/></svg>