<svg xmlns="http://www.w3.org/2000/svg" xmlns:svg="http://www.w3.org/2000/svg" id="Layer_1" x="0" y="0" enable-background="new 0 0 136.9 114.8" version="1.1" viewBox="0 0 136.9 114.8" xml:space="preserve"><metadata id="metadata29"/><rect id="rect3" width="103.6" height="67.5" x="16.3" y="10.9" fill="none" stroke="#a45c94" stroke-miterlimit="10" stroke-width="1.347" style="stroke:#a45c94;stroke-opacity:1"/><rect id="rect5" width="103.6" height="2.4" x="16.3" y="10.9" fill="none" stroke="#a45c94" stroke-miterlimit="10" stroke-width="1.347" style="stroke:#a45c94;stroke-opacity:1"/><path id="path7" fill="none" stroke="#a45c94" stroke-miterlimit="10" stroke-width="1.347" d="M75.8,31.5c8.7,4.7,14.8,13.2,13.5,20 c-1.6,8.5-13.8,11.4-26.8,4.3S45.3,36.9,51.6,30.9C56.7,26.1,67.1,26.7,75.8,31.5z" style="stroke:#a45c94;stroke-opacity:1"/><path id="path9" fill="none" stroke="#a45c94" stroke-miterlimit="10" stroke-width="1.347" d="M86.1,43.6c1,2.4,0.5,5.5-1.3,5 c-1.9-0.5-9.8-5-13.8-7.4c2.9-1.2,8.2-3.2,9.8-3.2C82.2,38.2,85.2,41.4,86.1,43.6z" style="stroke:#a45c94;stroke-opacity:1"/><path id="path11" fill="none" stroke="#a45c94" stroke-miterlimit="10" stroke-width="1.347" d="M83,55.3c-2.3,1.3-7.3,1.2-8.6-0.7 c-1.2-1.9-2.9-9.5-3.5-12.9c4.2,2.1,12.2,6.3,13.8,7.7C86.3,50.7,85.2,54,83,55.3z" style="stroke:#a45c94;stroke-opacity:1"/><path id="path13" fill="none" stroke="#a45c94" stroke-miterlimit="10" stroke-width="1.347" d="M63.6,53.5c-3.6-2-7.3-6.3-5.9-7.6 c1.3-1.2,9-3.5,12.5-4.4c1.2,3.5,3.4,11.2,3.1,13C73,56.3,67.3,55.5,63.6,53.5z" style="stroke:#a45c94;stroke-opacity:1"/><path id="path15" fill="none" stroke="#a45c94" stroke-miterlimit="10" stroke-width="1.347" d="M51.9,38.3c-0.1-2.5,2-5.2,4.1-4.6 c2.1,0.6,9.9,5.1,13.9,7.5c-3.2,1.3-10.5,4.1-12.8,4.1C54.9,45.1,52,40.9,51.9,38.3z" style="stroke:#a45c94;stroke-opacity:1"/><path id="path17" fill="none" stroke="#a45c94" stroke-miterlimit="10" stroke-width="1.347" d="M60,29.3c2.4-0.4,6.6,0.3,7.5,1.5 c0.9,1.2,2.1,6.8,2.6,9.9c-4.2-2.1-12.3-6.3-13.7-7.6C55,31.8,57.4,29.8,60,29.3z" style="stroke:#a45c94;stroke-opacity:1"/><path id="path19" fill="none" stroke="#a45c94" stroke-miterlimit="10" stroke-width="1.347" d="M75.2,32.5c2.5,1.4,5.6,4.3,5,5 c-0.7,0.8-6.3,2.5-9.5,3.3c-1.1-3.2-2.7-8.9-2.4-9.9C68.6,30,72.6,31.1,75.2,32.5z" style="stroke:#a45c94;stroke-opacity:1"/><path id="path21" fill="none" stroke="#a45c94" stroke-miterlimit="10" stroke-width="1.347" d="M130,114.8H6.9c-3.8,0-6.9-3.1-6.9-6.9V6.9 C0,3.1,3.1,0,6.9,0H130c3.8,0,6.9,3.1,6.9,6.9v101.1C136.9,111.7,133.9,114.8,130,114.8z" style="stroke:#a45c94;stroke-opacity:1"/><path id="path23" fill="none" stroke="#a45c94" stroke-miterlimit="10" stroke-width="1.347" d="M87.4,55.5c-6.6,10.4-20.4,14.6-30.8,8 s-13.4-19.6-6.9-30" style="stroke:#a45c94;stroke-opacity:1"/></svg>