<svg xmlns="http://www.w3.org/2000/svg" xmlns:svg="http://www.w3.org/2000/svg" id="Layer_1" x="0" y="0" enable-background="new 0 0 136.9 114.8" version="1.1" viewBox="0 0 136.9 114.8" xml:space="preserve"><metadata id="metadata25"/><path id="path3" fill="none" stroke="#a45c94" stroke-miterlimit="10" stroke-width="1.347" d="M130,114.8H6.9c-3.8,0-6.9-3.1-6.9-6.9V6.9 C0,3.1,3.1,0,6.9,0H130c3.8,0,6.9,3.1,6.9,6.9v101.1C136.9,111.7,133.9,114.8,130,114.8z" style="stroke:#a45c94;stroke-opacity:1"/><g id="Layer_1_22_" style="stroke:#a45c94;stroke-opacity:1"><rect id="rect6" width="102.9" height="67.5" x="16.3" y="10.9" fill="none" stroke="#a45c94" stroke-miterlimit="10" stroke-width="1.347" style="stroke:#a45c94;stroke-opacity:1"/></g><g id="Layer_3_3_" style="stroke:#a45c94;stroke-opacity:1;fill:#a45c94;fill-opacity:1"><g id="g9" opacity=".8" style="stroke:#a45c94;stroke-opacity:1;fill:#a45c94;fill-opacity:1"><path id="path11" fill="#a45c94" d="M40.6,28.3l-14.4-6.6v-2.3l17.3,7.8v2.1l-17.3,7.8v-2.3L40.6,28.3z" style="stroke:#a45c94;stroke-opacity:1;fill:#a45c94;fill-opacity:1"/><path id="path13" fill="#a45c94" d="M62,39.5v1.7H45v-1.7H62z" style="stroke:#a45c94;stroke-opacity:1;fill:#a45c94;fill-opacity:1"/></g><g id="g15" style="stroke:#a45c94;stroke-opacity:1;fill:#a45c94;fill-opacity:1"><path id="path17" fill="#a45c94" d="M40.6,28.3l-14.4-6.6v-2.3l17.3,7.8v2.1l-17.3,7.8v-2.3L40.6,28.3z" style="stroke:#a45c94;stroke-opacity:1;fill:#a45c94;fill-opacity:1"/><path id="path19" fill="#a45c94" d="M62,39.5v1.7H45v-1.7H62z" style="stroke:#a45c94;stroke-opacity:1;fill:#a45c94;fill-opacity:1"/></g></g></svg>